<svg width="800" height="2000" viewBox="0 0 800 2000" fill="none" xmlns="http://www.w3.org/2000/svg">
  <defs>
    <linearGradient id="bg" x1="400" y1="0" x2="400" y2="2000" gradientUnits="userSpaceOnUse">
      <stop stop-color="#FBF2C7"/>
      <stop offset="1" stop-color="#F4E9AE"/>
    </linearGradient>
    <radialGradient id="glowA" cx="0" cy="0" r="1" gradientUnits="userSpaceOnUse" gradientTransform="translate(150 220) rotate(90) scale(220 220)">
      <stop stop-color="#7AD0C5" stop-opacity="0.5"/>
      <stop offset="1" stop-color="#7AD0C5" stop-opacity="0"/>
    </radialGradient>
    <radialGradient id="glowB" cx="0" cy="0" r="1" gradientUnits="userSpaceOnUse" gradientTransform="translate(620 1320) rotate(90) scale(280 280)">
      <stop stop-color="#7AD0C5" stop-opacity="0.32"/>
      <stop offset="1" stop-color="#7AD0C5" stop-opacity="0"/>
    </radialGradient>
    <linearGradient id="screen" x1="400" y1="620" x2="400" y2="1260" gradientUnits="userSpaceOnUse">
      <stop stop-color="#16235E"/>
      <stop offset="1" stop-color="#0D1434"/>
    </linearGradient>
    <linearGradient id="button" x1="0" y1="0" x2="1" y2="1">
      <stop stop-color="#FFAA4C"/>
      <stop offset="0.55" stop-color="#FF6A2A"/>
      <stop offset="1" stop-color="#D9451E"/>
    </linearGradient>
    <filter id="shadow" x="0" y="0" width="800" height="2000" filterUnits="userSpaceOnUse" color-interpolation-filters="sRGB">
      <feDropShadow dx="0" dy="18" stdDeviation="20" flood-color="#101B50" flood-opacity="0.18"/>
    </filter>
    <pattern id="grid" width="40" height="40" patternUnits="userSpaceOnUse">
      <path d="M40 0H0V40" stroke="#101B50" stroke-opacity="0.12"/>
    </pattern>
  </defs>

  <rect width="800" height="2000" fill="url(#bg)"/>
  <rect width="800" height="2000" fill="url(#grid)"/>
  <rect width="800" height="2000" fill="url(#glowA)"/>
  <rect width="800" height="2000" fill="url(#glowB)"/>

  <path d="M44 54H756V126L712 170H44V54Z" fill="#FAF1C2" stroke="#101B50" stroke-opacity="0.24" stroke-width="3"/>
  <text x="72" y="98" fill="#101B50" font-family="'IBM Plex Mono', monospace" font-size="24" font-weight="700">cache ///// conference_wave_01</text>
  <text x="72" y="136" fill="#364475" font-family="'IBM Plex Mono', monospace" font-size="22">Pocket Gamer Connects Barcelona // 15-16 June 2026</text>

  <g transform="translate(232 218)">
    <ellipse cx="168" cy="78" rx="142" ry="48" transform="rotate(-18 168 78)" fill="#7AD0C5"/>
    <text x="77" y="98" fill="#101B50" font-family="'Space Grotesk', Arial, sans-serif" font-size="88" font-weight="700" letter-spacing="-7">BOG</text>
  </g>

  <text x="86" y="472" fill="#101B50" font-family="'Space Grotesk', Arial, sans-serif" font-size="92" font-weight="700" letter-spacing="-4">RESOLVE THE</text>
  <text x="86" y="560" fill="#101B50" font-family="'Space Grotesk', Arial, sans-serif" font-size="92" font-weight="700" letter-spacing="-4">CONTRACT.</text>
  <text x="88" y="626" fill="#1EB5BD" font-family="'IBM Plex Mono', monospace" font-size="28" font-weight="700">build the lineup // lock 12 danger // watch the duel</text>

  <g filter="url(#shadow)">
    <path d="M86 676H714V1288L654 1348H86V676Z" fill="url(#screen)"/>
    <path d="M86 676H714V1288L654 1348H86V676Z" stroke="#23316E" stroke-width="4"/>
  </g>

  <text x="120" y="726" fill="#F4E9AE" font-family="'IBM Plex Mono', monospace" font-size="22">visual feed // resolver protocol</text>
  <rect x="604" y="696" width="78" height="30" rx="4" fill="#7AD0C5" fill-opacity="0.16" stroke="#7AD0C5" stroke-opacity="0.35"/>
  <text x="620" y="717" fill="#F4E9AE" font-family="'IBM Plex Mono', monospace" font-size="18">ACTIVE</text>

  <rect x="132" y="774" width="536" height="450" rx="18" fill="#111A46" stroke="#7AD0C5" stroke-opacity="0.18" stroke-width="3"/>
  <ellipse cx="400" cy="980" rx="168" ry="110" fill="#183A5A"/>
  <rect x="272" y="838" width="256" height="252" rx="28" fill="#2D333B" stroke="#A5A8AE" stroke-width="8"/>
  <rect x="295" y="864" width="210" height="188" rx="18" fill="#153E39"/>
  <path d="M242 906L272 888V1066L242 1088V906Z" fill="#FF6A2A"/>
  <path d="M528 888L558 906V1088L528 1066V888Z" fill="#272B39"/>
  <rect x="320" y="1094" width="28" height="16" rx="2" fill="#F15B5B"/>
  <rect x="360" y="1094" width="28" height="16" rx="2" fill="#7AD0C5"/>
  <rect x="400" y="1094" width="28" height="16" rx="2" fill="#F15B5B"/>
  <rect x="440" y="1094" width="28" height="16" rx="2" fill="#7AD0C5"/>
  <line x1="315" y1="820" x2="315" y2="728" stroke="#A5A8AE" stroke-width="6"/>
  <line x1="485" y1="820" x2="485" y2="728" stroke="#A5A8AE" stroke-width="6"/>
  <line x1="400" y1="800" x2="400" y2="690" stroke="#A5A8AE" stroke-width="4"/>
  <text x="198" y="1174" fill="#F4E9AE" font-family="'Space Grotesk', Arial, sans-serif" font-size="34" font-weight="700">AI TERMINAL / HERO ART ZONE</text>
  <text x="183" y="1212" fill="#9FB0D7" font-family="'IBM Plex Mono', monospace" font-size="22">swap this block for final character, ship, or live UI composition</text>

  <text x="138" y="1296" fill="#F4E9AE" font-family="'IBM Plex Mono', monospace" font-size="22">preferred signals // resolver fantasy // AR duel protocol // tactile sci-fi interface</text>

  <text x="264" y="1408" fill="#101B50" font-family="'IBM Plex Mono', monospace" font-size="26" font-weight="700">START</text>
  <rect x="248" y="1428" width="304" height="252" rx="24" fill="#F8EDBE" stroke="#101B50" stroke-opacity="0.22" stroke-width="3"/>
  <rect x="294" y="1472" width="212" height="168" rx="26" fill="#493A2F" stroke="#2A2019" stroke-width="6"/>
  <rect x="315" y="1492" width="170" height="128" rx="18" fill="url(#button)" stroke="#F5BF70" stroke-width="5"/>
  <path d="M368 1525H432V1589H368V1525Z" fill="#FFD84D" fill-opacity="0.22"/>
  <path d="M400 1512C423 1512 442 1531 442 1554C442 1577 423 1596 400 1596C377 1596 358 1577 358 1554C358 1531 377 1512 400 1512Z" fill="#FFD84D" fill-opacity="0.18"/>

  <rect x="86" y="1732" width="628" height="188" rx="28" fill="#FAF1C2" stroke="#101B50" stroke-opacity="0.14" stroke-width="3"/>
  <text x="130" y="1782" fill="#101B50" font-family="'IBM Plex Mono', monospace" font-size="24" font-weight="700">scan and choose your path</text>

  <g>
    <rect x="128" y="1810" width="178" height="178" rx="12" fill="white" stroke="#101B50" stroke-opacity="0.22" stroke-width="3"/>
    <path d="M160 1842H274V1956H160V1842Z" stroke="#101B50" stroke-opacity="0.3" stroke-width="4" stroke-dasharray="10 10"/>
    <text x="134" y="1772" fill="#101B50" font-family="'Space Grotesk', Arial, sans-serif" font-size="24" font-weight="700">PLAY THE BUILD</text>
    <text x="143" y="1974" fill="#1EB5BD" font-family="'IBM Plex Mono', monospace" font-size="22" font-weight="700">TESTFLIGHT QR</text>
  </g>

  <g>
    <rect x="494" y="1810" width="178" height="178" rx="12" fill="white" stroke="#101B50" stroke-opacity="0.22" stroke-width="3"/>
    <path d="M526 1842H640V1956H526V1842Z" stroke="#101B50" stroke-opacity="0.3" stroke-width="4" stroke-dasharray="10 10"/>
    <text x="510" y="1772" fill="#101B50" font-family="'Space Grotesk', Arial, sans-serif" font-size="24" font-weight="700">SEE THE WORLD</text>
    <text x="526" y="1974" fill="#1EB5BD" font-family="'IBM Plex Mono', monospace" font-size="22" font-weight="700">WEBSITE QR</text>
  </g>

  <text x="208" y="1708" fill="#364475" font-family="'IBM Plex Mono', monospace" font-size="22">mobile sci-fi strategy // AR figurine duels // resolver protocol</text>
</svg>
